<?xml version="1.0" standalone="no"?>
<!DOCTYPE svg PUBLIC "-//W3C//DTD SVG 20010904//EN"
 "http://www.w3.org/TR/2001/REC-SVG-20010904/DTD/svg10.dtd">
<svg version="1.0" xmlns="http://www.w3.org/2000/svg"
 width="666.000000pt" height="374.000000pt" viewBox="0 0 666.000000 374.000000"
 preserveAspectRatio="xMidYMid meet">

<g transform="translate(0.000000,374.000000) scale(0.100000,-0.100000)"
fill="#000000" stroke="none">
<path d="M3190 2933 c-133 -23 -317 -90 -495 -181 -95 -48 -221 -118 -234
-128 -2 -2 3 -27 13 -55 9 -29 15 -53 14 -54 -2 -1 -29 -17 -62 -35 -32 -18
-87 -59 -122 -92 l-63 -60 -17 41 c-9 23 -19 41 -23 41 -13 0 -50 -94 -57
-143 -5 -39 -9 -47 -23 -41 -32 13 -213 16 -289 5 -152 -24 -296 -82 -420
-170 -57 -41 -72 -57 -70 -74 3 -17 -7 -25 -60 -45 -47 -18 -66 -31 -73 -50
-12 -32 -8 -44 64 -154 30 -46 142 -218 249 -383 107 -165 227 -349 266 -410
39 -60 79 -118 89 -128 25 -26 55 -19 208 46 72 30 229 96 350 146 362 150
325 131 325 172 0 19 6 44 14 54 14 19 15 19 35 -5 11 -14 20 -28 21 -32 0 -5
7 -8 17 -8 34 0 868 282 881 298 26 34 13 68 -73 188 -47 65 -99 139 -116 162
-17 24 -27 48 -23 52 12 11 163 56 242 72 43 8 61 16 58 25 -3 7 -132 223
-286 480 -185 309 -287 468 -298 469 -9 1 -28 0 -42 -3z m231 -329 c101 -169
225 -375 275 -458 l91 -151 -101 -26 c-175 -45 -329 -110 -559 -236 -26 -14
-50 -23 -54 -19 -3 3 -1 22 5 42 12 39 11 39 -54 19 -20 -6 -21 -5 -11 55 l10
62 -35 32 c-22 19 -44 53 -57 89 -65 177 -61 169 -98 165 -18 -2 -33 -2 -33
-1 0 2 7 20 15 40 26 62 24 63 -71 63 l-85 0 2 53 c3 53 0 56 -40 46 -9 -3
-19 14 -30 46 -13 36 -24 51 -41 55 -17 4 -28 19 -41 55 -30 86 -46 70 186
190 218 112 406 180 511 184 30 1 35 -6 215 -305z m-916 -134 c4 -12 15 -20
29 -20 19 0 26 -9 41 -56 16 -51 19 -55 42 -49 25 6 25 5 19 -40 l-7 -45 85 0
c53 0 86 -4 86 -10 0 -6 -7 -27 -15 -47 -22 -51 -20 -55 27 -51 l42 3 18 -50
c10 -27 28 -79 40 -113 20 -56 44 -86 84 -106 3 -1 -13 -98 -21 -128 -6 -24
-4 -28 13 -28 12 0 24 5 27 10 3 6 13 10 21 10 11 0 13 -6 9 -22 -4 -13 -8
-27 -9 -33 -3 -21 72 -2 139 37 95 54 228 118 246 118 8 -1 40 -39 71 -85 l58
-84 -58 -11 c-276 -54 -537 -185 -646 -326 -22 -29 -42 -51 -44 -49 -7 7 18
106 37 148 24 52 22 62 -8 58 -22 -3 -23 -1 -16 38 8 46 6 47 -36 25 -17 -8
-33 -14 -35 -11 -2 2 1 30 7 62 11 62 8 70 -46 103 -6 4 -32 61 -56 127 l-45
120 -32 -3 c-36 -4 -38 1 -17 51 8 20 15 39 15 42 0 3 -41 5 -91 5 l-90 0 7
56 7 56 -31 -7 c-29 -6 -31 -4 -50 47 -16 42 -24 52 -40 50 -37 -5 -35 28 6
77 34 42 181 151 202 151 5 0 12 -9 15 -20z m-280 -173 c17 -52 23 -62 42 -60
18 2 25 -7 41 -55 16 -48 23 -57 41 -54 21 2 22 -2 19 -40 l-3 -43 87 -3 88
-3 -20 -52 c-11 -29 -20 -54 -20 -56 0 -2 20 -1 44 1 l44 5 35 -91 c19 -50 38
-101 41 -113 4 -12 22 -31 40 -42 l33 -21 -14 -76 c-8 -42 -12 -79 -8 -82 3
-4 20 1 37 11 37 21 42 18 28 -17 -12 -34 -6 -46 20 -39 24 6 24 4 4 -46 -8
-21 -19 -61 -22 -88 l-7 -48 -165 250 c-91 137 -187 284 -215 327 -27 43 -89
139 -137 213 -76 117 -88 141 -88 179 0 44 17 106 28 106 4 0 16 -28 27 -63z
m-138 -91 l62 -11 236 -360 c129 -198 267 -407 305 -465 39 -58 70 -108 70
-110 0 -3 -49 -6 -110 -6 -60 -1 -133 -7 -162 -14 -161 -36 -330 -100 -447
-169 l-52 -31 -146 223 c-80 122 -218 332 -306 466 -87 133 -161 251 -164 260
-5 19 121 106 208 145 169 73 355 100 506 72z m-765 -288 c-14 -14 -12 -17 96
-183 47 -71 109 -166 137 -210 29 -44 105 -161 170 -260 65 -99 142 -217 171
-262 29 -44 57 -83 61 -86 5 -3 40 14 78 39 97 62 253 137 364 174 72 24 307
80 337 80 2 0 4 -11 4 -24 0 -21 -13 -30 -112 -71 -166 -69 -333 -139 -465
-194 -242 -101 -253 -105 -268 -90 -12 12 -214 319 -330 501 -22 35 -107 165
-188 290 -104 159 -148 234 -145 250 2 15 16 29 38 40 42 20 70 24 52 6z m190
-193 c73 -113 208 -320 300 -460 l168 -256 52 31 c188 109 442 191 588 189
l65 -1 -89 -19 c-186 -38 -397 -122 -567 -226 l-65 -40 -96 146 c-485 739
-530 812 -518 826 7 8 16 15 20 15 5 0 68 -92 142 -205z m2048 49 c151 -212
162 -229 155 -257 -6 -23 -23 -30 -168 -77 -89 -29 -281 -92 -427 -140 -188
-63 -268 -86 -277 -78 -14 11 43 45 207 125 172 83 450 173 535 173 32 0 40
16 21 45 -9 13 -16 33 -16 44 0 11 -5 23 -10 26 -6 4 -8 15 -5 25 4 12 -15 48
-60 111 -47 67 -62 95 -53 101 7 4 15 8 18 8 3 -1 39 -48 80 -106z m-7 -138
c4 -10 -16 -18 -76 -31 -234 -50 -463 -157 -594 -278 -56 -52 -55 -35 1 25
115 121 293 215 521 274 105 27 141 29 148 10z m9 -53 c25 -22 23 -43 -4 -43
-38 0 -213 -48 -316 -86 -53 -20 -153 -63 -222 -97 -69 -34 -129 -63 -135 -66
-32 -13 42 49 110 94 143 94 247 139 430 185 61 16 112 29 114 29 3 1 13 -6
23 -16z"/>
<path d="M3234 2548 c-9 -18 -18 -34 -19 -36 -1 -1 -18 4 -37 12 -33 14 -48
13 -48 -4 0 -4 18 -13 40 -20 22 -7 40 -15 40 -17 0 -2 -7 -18 -16 -35 -11
-22 -13 -33 -5 -41 8 -8 16 1 27 31 l17 41 35 -14 c41 -18 52 -19 52 -4 0 6
-18 18 -39 26 l-39 15 14 34 c17 40 17 44 4 44 -5 0 -17 -15 -26 -32z"/>
<path d="M2960 2430 c-10 -31 -17 -39 -29 -35 -9 4 -28 9 -43 12 -43 9 -34
-15 11 -28 38 -11 39 -12 29 -46 -14 -52 -2 -63 18 -15 12 30 22 41 33 38 58
-17 73 -18 69 -5 -2 7 -21 18 -42 23 -32 7 -37 11 -31 30 15 47 17 66 8 66 -5
0 -16 -18 -23 -40z"/>
<path d="M3155 2318 c-53 -27 -91 -63 -120 -117 -29 -51 -29 -51 -11 -51 7 0
19 13 25 28 17 41 80 102 126 123 49 23 99 24 155 4 51 -18 63 -19 58 -3 -13
39 -169 50 -233 16z"/>
<path d="M2416 2893 c-11 -72 -7 -133 9 -133 12 0 15 16 15 85 0 88 -13 113
-24 48z"/>
<path d="M2126 2842 c-6 -10 76 -144 92 -150 22 -7 13 20 -29 90 -40 65 -52
77 -63 60z"/>
<path d="M1910 2630 c0 -10 151 -90 170 -90 29 0 1 24 -70 60 -83 42 -100 47
-100 30z"/>
<path d="M4044 2521 c-117 -55 -153 -236 -63 -318 118 -106 319 28 296 198 -6
43 -39 99 -70 119 -35 22 -118 23 -163 1z m117 -11 c145 -40 109 -292 -45
-315 -99 -15 -159 36 -159 134 0 84 50 163 111 177 15 3 32 7 37 9 16 6 18 5
56 -5z"/>
<path d="M4053 2480 c-42 -25 -61 -56 -72 -115 -12 -65 4 -112 48 -142 58 -39
116 -24 168 43 21 29 28 50 31 100 4 62 3 65 -31 99 -41 41 -92 47 -144 15z
m120 -20 c51 -40 44 -144 -13 -202 -39 -39 -100 -40 -135 -2 -49 53 -21 174
49 208 42 21 68 20 99 -4z"/>
<path d="M4420 2524 c-45 -20 -68 -41 -91 -86 -42 -82 -31 -184 24 -236 80
-74 222 -31 276 83 73 156 -57 305 -209 239z m147 -30 c58 -37 75 -131 39
-207 -39 -81 -134 -118 -210 -82 -47 23 -68 64 -67 132 1 136 134 223 238 157z"/>
<path d="M4423 2480 c-45 -27 -73 -87 -73 -155 0 -49 4 -60 29 -85 52 -52 106
-52 166 1 24 22 40 48 51 86 15 51 15 58 -1 99 -27 71 -104 96 -172 54z m120
-20 c51 -41 47 -137 -9 -197 -32 -33 -37 -35 -81 -30 -58 6 -82 34 -83 96 0
107 103 186 173 131z"/>
<path d="M5085 2526 c-39 -17 -55 -37 -61 -78 -8 -46 23 -82 102 -120 70 -33
79 -46 58 -77 -11 -15 -26 -21 -55 -21 -56 0 -79 15 -79 50 0 31 -7 34 -49 23
-20 -5 -22 -10 -17 -41 7 -47 38 -78 91 -91 100 -25 190 27 187 108 -1 49 -17
66 -96 104 -80 38 -97 65 -57 87 44 23 111 -1 111 -41 0 -15 7 -19 30 -19 38
0 45 18 26 64 -25 59 -117 84 -191 52z m153 -41 c14 -13 22 -31 20 -41 -3 -16
-7 -14 -21 12 -36 69 -167 56 -167 -16 0 -31 27 -55 88 -80 83 -33 104 -83 59
-136 -49 -56 -191 -37 -208 29 -9 34 8 36 21 2 11 -28 57 -55 95 -55 62 0 113
57 88 99 -5 9 -36 30 -70 46 -33 17 -68 36 -77 44 -23 19 -21 77 4 99 43 37
129 35 168 -3z"/>
<path d="M4720 2525 c0 -2 -16 -79 -35 -171 -19 -91 -35 -170 -35 -175 0 -5
15 -9 33 -9 34 0 34 0 48 68 l14 67 82 7 c117 9 153 41 153 132 0 32 -6 48
-23 64 -21 20 -34 22 -130 22 -59 0 -107 -2 -107 -5z m220 -35 c31 -31 27 -85
-9 -121 -24 -23 -39 -29 -78 -30 -26 -1 -66 -2 -88 -3 l-39 -1 -13 -64 c-7
-36 -15 -67 -18 -69 -18 -18 -13 25 15 157 l33 151 88 0 c76 0 92 -3 109 -20z"/>
<path d="M4750 2448 c-6 -29 -13 -63 -16 -75 -6 -22 -4 -23 73 -23 74 0 81 2
107 29 21 22 27 36 24 62 -4 43 -34 59 -115 59 l-61 0 -12 -52z m165 2 c7 -23
-9 -56 -35 -70 -28 -15 -120 -13 -120 3 0 6 5 29 11 50 l10 37 64 0 c54 0 65
-3 70 -20z"/>
<path d="M5356 2515 c-7 -18 -36 -210 -36 -237 0 -12 7 -18 24 -18 20 0 26 7
34 43 6 23 20 78 31 122 11 44 21 86 21 93 0 18 -66 16 -74 -3z m44 -27 c0
-12 -5 -35 -10 -52 -6 -17 -17 -53 -25 -81 l-14 -50 5 65 c7 81 22 140 34 140
6 0 10 -10 10 -22z"/>
<path d="M1893 2363 c-91 -6 -77 -23 17 -23 64 0 80 3 80 15 0 8 -8 14 -17 13
-10 -1 -46 -3 -80 -5z"/>
<path d="M5300 2228 c0 -7 -3 -23 -6 -35 -6 -21 -3 -23 29 -23 28 0 36 5 41
23 11 41 7 47 -29 47 -21 0 -35 -5 -35 -12z m40 -23 c0 -8 -4 -15 -10 -15 -5
0 -10 7 -10 15 0 8 5 15 10 15 6 0 10 -7 10 -15z"/>
<path d="M3976 2102 c-3 -3 -5 -30 -5 -61 1 -31 4 -44 6 -29 3 22 10 27 36 30
33 3 49 30 29 50 -12 12 -58 19 -66 10z m59 -32 c0 -9 -11 -16 -27 -18 -23 -3
-28 1 -28 18 0 17 5 21 28 18 16 -2 27 -9 27 -18z"/>
<path d="M4198 2103 c-25 -6 -39 -55 -24 -84 9 -19 19 -24 51 -24 36 0 40 3
43 28 3 24 0 27 -25 26 -27 0 -27 -1 -5 -9 27 -11 28 -27 2 -35 -51 -16 -82
48 -38 79 20 14 24 14 45 1 13 -9 23 -11 23 -6 0 11 -33 32 -47 30 -4 -1 -16
-3 -25 -6z"/>
<path d="M4305 2102 c-3 -3 -5 -29 -5 -59 l0 -53 43 1 42 2 -35 6 c-47 8 -55
41 -11 41 17 0 31 5 31 10 0 6 -13 10 -30 10 -20 0 -30 5 -30 15 0 11 11 15
37 15 20 0 34 2 31 5 -7 7 -67 13 -73 7z"/>
<path d="M4589 2100 c-25 -15 -32 -58 -14 -86 17 -26 62 -33 83 -12 21 21 15
75 -10 92 -26 18 -36 19 -59 6z m66 -31 c14 -44 -28 -85 -60 -59 -20 17 -19
67 1 78 23 13 52 4 59 -19z"/>
<path d="M4695 2100 c-3 -5 1 -10 9 -10 12 0 16 -11 16 -50 0 -27 5 -50 10
-50 6 0 10 23 10 50 0 45 2 50 22 50 32 0 13 12 -26 17 -19 2 -37 -1 -41 -7z"/>
<path d="M4845 2102 c-3 -3 -4 -30 -4 -61 1 -31 4 -44 6 -28 3 21 10 27 29 27
13 0 24 5 24 10 0 6 -11 10 -25 10 -38 0 -32 28 8 32 l32 3 -33 6 c-17 3 -34
3 -37 1z"/>
<path d="M4950 2090 c-37 -37 -14 -100 37 -100 25 0 53 30 53 58 0 25 -33 62
-55 62 -8 0 -24 -9 -35 -20z m68 -42 c-2 -17 -11 -36 -21 -42 -15 -9 -22 -7
-38 13 -24 29 -24 36 1 61 29 29 62 11 58 -32z"/>
<path d="M5294 2095 c-3 -7 -4 -32 -2 -56 3 -41 5 -44 34 -47 19 -2 38 3 48
13 19 20 21 68 2 84 -20 17 -77 21 -82 6z m76 -24 c17 -33 -5 -71 -42 -71 -15
0 -18 9 -18 45 0 41 2 45 25 45 14 0 29 -8 35 -19z"/>
<path d="M4083 2083 c-3 -10 -12 -33 -20 -52 -15 -38 -11 -54 7 -22 14 27 45
27 64 -1 25 -36 25 -17 0 40 -24 54 -40 65 -51 35z m37 -35 c0 -5 -9 -8 -20
-8 -18 0 -19 3 -9 21 9 17 13 19 20 8 5 -8 9 -17 9 -21z"/>
<path d="M4450 2045 c0 -61 17 -76 22 -18 l3 37 25 -37 c14 -20 28 -37 33 -37
4 0 6 26 5 58 l-1 57 -6 -44 -6 -45 -28 42 c-15 23 -32 42 -37 42 -6 0 -10
-25 -10 -55z"/>
<path d="M5061 2060 c-1 -50 11 -70 44 -70 33 0 45 20 44 70 l-2 45 -6 -40
c-8 -48 -17 -65 -36 -65 -19 0 -28 17 -36 65 l-6 40 -2 -45z"/>
<path d="M5182 2043 l1 -58 6 45 6 45 29 -42 c16 -24 33 -43 37 -43 5 0 9 25
9 55 0 62 -17 75 -22 18 l-3 -38 -23 38 c-13 20 -28 37 -33 37 -5 0 -8 -26 -7
-57z"/>
</g>
</svg>
